# xmcd CD database file
#
# Track frame offsets:
#	150
#	26456
#	51522
#	77688
#	96539
#	120617
#	135367
#	163755
#	177732
#	199887
#	220529
#	242752
#
# Disc length: 3953 seconds
#
# Revision: 0
# Processed by: cddbd v1.5.2PL0 Copyright (c) Steve Scherf et al.
# Submitted via: CDex 1.70beta2
#
DISCID=a90f6f0c
DTITLE=Lily Dahab - Nomade
DYEAR=2010
DGENRE=Jazz
TTITLE0=Entre Tu y yo
TTITLE1=Mediterraneo
TTITLE2=Bésame mucho
TTITLE3=Mujer, Nina y amiga
TTITLE4=Flor de Lis
TTITLE5=Siempre Se Vuelve aBuenos Aires
TTITLE6=Esta Tarde vi LLover
TTITLE7=Sin Piel
TTITLE8=CaDa Vez Que Siento Tu Amor
TTITLE9=Aguas De Marco
TTITLE10=Tierra
TTITLE11=Te Elegiria Cada Vez
EXTD=YEAR: 2010
EXTT0=
EXTT1=
EXTT2=
EXTT3=
EXTT4=
EXTT5=
EXTT6=
EXTT7=
EXTT8=
EXTT9=
EXTT10=
EXTT11=
PLAYORDER=
